<svg width="64" height="64" viewBox="0 0 64 64" fill="none" xmlns="http://www.w3.org/2000/svg">
<path d="M56 26.6667C56 45.3334 32 61.3334 32 61.3334C32 61.3334 8 45.3334 8 26.6667C8 20.3015 10.5286 14.197 15.0294 9.69612C19.5303 5.19525 25.6348 2.66669 32 2.66669C38.3652 2.66669 44.4697 5.19525 48.9706 9.69612C53.4714 14.197 56 20.3015 56 26.6667Z" stroke="#39D6C0" stroke-width="2" stroke-linecap="round" stroke-linejoin="round"/>
<path d="M32 34.6667C36.4183 34.6667 40 31.085 40 26.6667C40 22.2484 36.4183 18.6667 32 18.6667C27.5817 18.6667 24 22.2484 24 26.6667C24 31.085 27.5817 34.6667 32 34.6667Z" stroke="#39D6C0" stroke-width="2" stroke-linecap="round" stroke-linejoin="round"/>
</svg>
