<svg width="64" height="64" viewBox="0 0 64 64" fill="none" xmlns="http://www.w3.org/2000/svg">
<path d="M32 50.6667C42.3094 50.6667 50.6667 42.3094 50.6667 32C50.6667 21.6907 42.3094 13.3334 32 13.3334C21.6907 13.3334 13.3334 21.6907 13.3334 32C13.3334 42.3094 21.6907 50.6667 32 50.6667Z" stroke="#39D6C0" stroke-width="2" stroke-linecap="round" stroke-linejoin="round"/>
<path d="M32 24V32L36 36" stroke="#39D6C0" stroke-width="2" stroke-linecap="round" stroke-linejoin="round"/>
<path d="M19.9733 17.7333L20.9067 7.52C21.0264 6.19488 21.6371 4.96236 22.619 4.06441C23.6008 3.16646 24.8828 2.66792 26.2133 2.66667H37.8133C39.1484 2.66125 40.437 3.1568 41.4245 4.0554C42.412 4.954 43.0265 6.19029 43.1467 7.52L44.08 17.7333M44.0267 46.2667L43.0933 56.48C42.9732 57.8097 42.3587 59.046 41.3712 59.9446C40.3837 60.8432 39.0951 61.3388 37.76 61.3333H26.2133C24.8782 61.3388 23.5896 60.8432 22.6021 59.9446C21.6147 59.046 21.0001 57.8097 20.88 56.48L19.9467 46.2667H44.0267Z" stroke="#39D6C0" stroke-width="2" stroke-linecap="round" stroke-linejoin="round"/>
</svg>
